HIERARCHY
ROOT Hips
{
 OFFSET 0.000000 0.000000 0.000000
 CHANNELS 6 Xposition Yposition Zposition Yrotation Xrotation Zrotation
 JOINT Chest
 {
  OFFSET 0.000000 9.857222 0.000240
  CHANNELS 3 Yrotation Xrotation Zrotation
  JOINT Chest2
  {
   OFFSET 0.000000 10.876940 -0.000436
   CHANNELS 3 Yrotation Xrotation Zrotation
   JOINT Chest3
   {
    OFFSET 0.000000 9.827798 0.000000
    CHANNELS 3 Yrotation Xrotation Zrotation
    JOINT Chest4
    {
     OFFSET 0.000000 9.827798 0.000000
     CHANNELS 3 Yrotation Xrotation Zrotation
     JOINT Neck
     {
      OFFSET 0.000000 13.831992 0.000000
      CHANNELS 3 Yrotation Xrotation Zrotation
      JOINT Head
      {
       OFFSET 0.000000 9.147643 -0.001036
       CHANNELS 3 Yrotation Xrotation Zrotation
       End Site
       {
        OFFSET 0.000000 17.515799 -0.000541
       }
      }
     }
     JOINT RightCollar
     {
      OFFSET -3.001579 7.717577 0.000000
      CHANNELS 3 Yrotation Xrotation Zrotation
      JOINT RightShoulder
      {
       OFFSET -14.002642 0.000000 0.000000
       CHANNELS 3 Yrotation Xrotation Zrotation
       JOINT RightElbow
       {
        OFFSET -30.053852 0.000000 0.000000
        CHANNELS 3 Yrotation Xrotation Zrotation
        JOINT RightWrist
        {
         OFFSET -24.564923 0.000000 -0.000000
         CHANNELS 3 Yrotation Xrotation Zrotation
         End Site
         {
          OFFSET -18.334355 0.000000 0.000000
         }
        }
       }
      }
     }
     JOINT LeftCollar
     {
      OFFSET 3.001579 7.717577 0.000000
      CHANNELS 3 Yrotation Xrotation Zrotation
      JOINT LeftShoulder
      {
       OFFSET 14.002642 0.000000 0.000000
       CHANNELS 3 Yrotation Xrotation Zrotation
       JOINT LeftElbow
       {
        OFFSET 30.053852 0.000000 0.000000
        CHANNELS 3 Yrotation Xrotation Zrotation
        JOINT LeftWrist
        {
         OFFSET 24.564923 0.000000 -0.000000
         CHANNELS 3 Yrotation Xrotation Zrotation
         End Site
         {
          OFFSET 18.334355 0.000000 0.000000
         }
        }
       }
      }
     }
    }
   }
  }
 }
 JOINT RightHip
 {
  OFFSET -8.003235 -0.001175 -0.000120
  CHANNELS 3 Yrotation Xrotation Zrotation
  JOINT RightKnee
  {
   OFFSET 0.000000 -41.759727 0.000113
   CHANNELS 3 Yrotation Xrotation Zrotation
   JOINT RightAnkle
   {
    OFFSET 0.000000 -40.728748 0.000159
    CHANNELS 3 Yrotation Xrotation Zrotation
    JOINT RightToe
    {
     OFFSET 0.000000 -6.515296 14.732841
     CHANNELS 3 Yrotation Xrotation Zrotation
     End Site
     {
      OFFSET 0.000000 -1.502839 6.412115
     }
    }
   }
  }
 }
 JOINT LeftHip
 {
  OFFSET 8.003235 -0.001175 -0.000120
  CHANNELS 3 Yrotation Xrotation Zrotation
  JOINT LeftKnee
  {
   OFFSET 0.000000 -41.759727 0.000113
   CHANNELS 3 Yrotation Xrotation Zrotation
   JOINT LeftAnkle
   {
    OFFSET 0.000000 -40.728748 0.000159
    CHANNELS 3 Yrotation Xrotation Zrotation
    JOINT LeftToe
    {
     OFFSET 0.000000 -6.515296 14.732841
     CHANNELS 3 Yrotation Xrotation Zrotation
     End Site
     {
      OFFSET 0.000000 -1.502839 6.412115
     }
    }
   }
  }
 }
}
MOTION
Frames: 15
Frame Time: 0.016667
0.000000 88.822259 0.000000 0.000000 -5.826342 0.000000 0.000000 11.116423 0.000000 0.000000 -5.290081 0.000000 0.000000 0.000000 0.000000 0.000000 0.000000 0.000000 0.000000 12.665069 0.000000 0.000000 0.575450 0.000000 0.000000 0.000000 0.000000 0.000000 0.000000 0.000000 2.337306 0.000000 0.000000 -2.337306 0.000000 0.000000 0.000000 0.000000 0.000000 0.000000 0.000000 0.000000 -2.337306 0.000000 0.000000 2.337306 0.000000 0.000000 0.000000 8.578828 0.000000 0.000000 1.905768 0.000000 0.000000 -4.658254 0.000000 0.000000 0.000000 0.000000 0.000000 8.578828 0.000000 0.000000 1.905768 0.000000 0.000000 -4.658254 0.000000 0.000000 0.000000 0.000000
16.275858 90.316691 21.636578 -30.899931 -6.183123 1.002612 0.734657 3.330725 -0.781438 0.213693 1.628523 -0.143036 0.213693 1.628523 -0.143036 0.160641 1.221342 -0.107839 -8.794148 17.388611 2.383662 -17.029422 -3.068086 7.345752 4.332006 2.623884 7.895501 47.502303 -4.345726 88.470584 7.450363 25.595757 3.096874 -6.154292 13.983612 0.825309 -22.103999 7.706705 -12.367385 -28.256005 12.415211 -61.474265 -27.145510 -12.768259 -11.204907 3.916663 12.762211 8.129816 -3.472883 17.446679 -9.735863 1.006971 -7.609961 6.544444 -0.161909 -3.921528 1.085663 -1.399596 0.304724 -0.603932 -9.064279 9.506975 -1.595885 7.946167 0.802297 -0.373596 2.362783 -3.642335 -0.766025 0.155638 -0.076416 0.075278
16.283398 90.316548 21.640857 -30.869010 -6.202089 1.021918 0.736978 3.334584 -0.794823 0.220493 1.625324 -0.142167 0.220493 1.625324 -0.142167 0.165737 1.218942 -0.107204 -8.810622 17.398666 2.388003 -17.059953 -3.046512 7.357492 4.341073 2.686694 7.876200 47.540487 -4.392833 88.427013 7.407259 25.489375 3.094044 -6.154639 13.886846 0.784550 -22.118028 7.712423 -12.370306 -28.273064 12.416029 -61.500928 -27.079623 -12.845628 -11.242169 3.925985 12.754492 8.077211 -3.505042 17.466800 -9.764591 1.042639 -7.611328 6.530185 -0.157531 -3.933231 1.095664 -1.421089 0.307799 -0.608941 -9.035550 9.514761 -1.619116 7.903541 0.808922 -0.374577 2.362880 -3.635508 -0.756800 0.155976 -0.086426 0.073898
16.284647 90.316205 21.644828 -30.820036 -6.242742 1.028312 0.728723 3.355554 -0.798502 0.226691 1.623945 -0.142208 0.226691 1.623945 -0.142208 0.170385 1.217906 -0.107251 -8.826557 17.405991 2.395410 -17.090826 -3.029532 7.375078 4.354380 2.766405 7.862214 47.588531 -4.454879 88.338903 7.361335 25.353845 3.139111 -6.153322 13.805310 0.733100 -22.128949 7.731127 -12.363972 -28.283916 12.405661 -61.501418 -27.019532 -12.956140 -11.264771 3.905465 12.776633 8.015071 -3.573854 17.512549 -9.787921 1.077048 -7.619418 6.518568 -0.147330 -3.940253 1.087641 -1.410943 0.307625 -0.598141 -9.056804 9.540906 -1.634649 7.894420 0.829345 -0.356744 2.354085 -3.643820 -0.773353 0.156507 -0.090543 0.074593
16.289505 90.316064 21.642739 -30.784952 -6.264290 1.035566 0.742857 3.350890 -0.800101 0.231634 1.624481 -0.142288 0.231634 1.624481 -0.142288 0.174092 1.218307 -0.107325 -8.842029 17.412757 2.404830 -17.121575 -3.013309 7.396282 4.363879 2.856107 7.844621 47.670501 -4.536338 88.241021 7.280576 25.242294 3.199305 -6.139272 13.710771 0.687237 -22.145523 7.750270 -12.358368 -28.305865 12.390530 -61.507693 -26.965253 -13.026730 -11.260947 3.863306 12.780853 7.959129 -3.555362 17.533252 -9.788701 1.026256 -7.600320 6.521728 -0.126261 -3.959797 1.074707 -1.419848 0.311433 -0.594799 -9.098806 9.543845 -1.659641 7.908165 0.846311 -0.335825 2.358278 -3.647121 -0.787540 0.156647 -0.094466 0.076927
16.291330 90.316472 21.644673 -30.724150 -6.302768 1.038918 0.735345 3.367621 -0.798275 0.238008 1.621522 -0.141700 0.238008 1.621522 -0.141700 0.178870 1.216087 -0.106900 -8.860679 17.421641 2.413754 -17.157745 -2.992806 7.417270 4.374581 2.957823 7.825584 47.781339 -4.631954 88.124057 7.170187 25.173751 3.264987 -6.121099 13.641399 0.694006 -22.174904 7.763152 -12.359540 -28.317035 12.383665 -61.512227 -26.933606 -13.055795 -11.263702 3.827604 12.768058 7.915069 -3.629692 17.575837 -9.800444 1.027644 -7.598941 6.512099 -0.141517 -3.973489 1.057398 -1.403456 0.312650 -0.580817 -9.182732 9.565950 -1.681872 7.935904 0.861922 -0.319627 2.351467 -3.651579 -0.802858 0.154487 -0.098680 0.078062
16.298024 90.314706 21.643901 -30.661591 -6.297958 1.053367 0.734718 3.361693 -0.809422 0.243706 1.612506 -0.140851 0.243706 1.612506 -0.140851 0.183139 1.209323 -0.106274 -8.880460 17.430566 2.424080 -17.196443 -2.971823 7.441173 4.383534 3.057398 7.803941 47.883870 -4.749258 88.024728 6.996862 25.225697 3.310536 -6.079731 13.588507 0.743087 -22.199121 7.774032 -12.351600 -28.328615 12.385149 -61.509951 -26.929866 -13.067140 -11.268209 3.804817 12.750027 7.877098 -3.673160 17.574467 -9.824403 1.002603 -7.593007 6.513636 -0.119703 -3.999430 1.051782 -1.420380 0.324129 -0.581859 -9.261913 9.543243 -1.705665 7.961394 0.871143 -0.317894 2.349905 -3.652943 -0.805018 0.155145 -0.099305 0.078496
16.301816 90.311232 21.643037 -30.593287 -6.297616 1.052562 0.734393 3.362145 -0.808345 0.249595 1.604110 -0.138532 0.249595 1.604110 -0.138532 0.187547 1.203026 -0.104548 -8.901610 17.438828 2.434686 -17.237826 -2.951808 7.466119 4.414134 3.177863 7.787072 47.960002 -4.892723 87.889578 6.797668 25.358129 3.401023 -6.038486 13.552634 0.783221 -22.220363 7.783590 -12.338590 -28.338510 12.395881 -61.494415 -26.944662 -13.077521 -11.261925 3.770120 12.732675 7.853176 -3.735863 17.577689 -9.827444 1.019213 -7.592143 6.497525 -0.123349 -4.026646 1.040707 -1.415406 0.337268 -0.575270 -9.318228 9.526233 -1.702550 7.944202 0.889720 -0.324556 2.360770 -3.673718 -0.805638 0.155221 -0.087162 0.077557
16.313479 90.308264 21.639831 -30.549844 -6.295628 1.066812 0.761219 3.344387 -0.820166 0.255303 1.603870 -0.135110 0.255303 1.603870 -0.135110 0.191820 1.202847 -0.101996 -8.924152 17.445733 2.445049 -17.281846 -2.934119 7.491259 4.450207 3.311791 7.776595 48.098997 -5.041714 87.690120 6.590542 25.465009 3.544243 -5.990698 13.533412 0.827400 -22.240133 7.792230 -12.330627 -28.373826 12.400496 -61.490904 -26.957561 -13.103294 -11.215201 3.731537 12.696502 7.838091 -3.723995 17.572858 -9.854397 0.971777 -7.577588 6.508093 -0.060250 -4.050227 1.055275 -1.464184 0.346797 -0.595937 -9.332052 9.503047 -1.715224 7.926703 0.907223 -0.330967 2.371475 -3.679842 -0.800809 0.158090 -0.085657 0.077625
16.328264 90.307584 21.637305 -30.507054 -6.318773 1.068308 0.791555 3.337869 -0.816710 0.260799 1.610759 -0.130864 0.260799 1.610759 -0.130864 0.195931 1.208014 -0.098829 -8.947343 17.452684 2.454653 -17.326797 -2.916368 7.515201 4.489280 3.441823 7.768123 48.306460 -5.207121 87.462343 6.338854 25.570716 3.689140 -5.922412 13.489478 0.895946 -22.265082 7.786845 -12.337021 -28.392813 12.420873 -61.465198 -26.979027 -13.143935 -11.168972 3.699443 12.652151 7.832323 -3.705516 17.596621 -9.860908 0.896221 -7.565779 6.520907 -0.043228 -4.057120 1.058617 -1.484497 0.344870 -0.606591 -9.350359 9.506514 -1.720593 7.916538 0.923963 -0.333728 2.366795 -3.682872 -0.797517 0.158104 -0.085924 0.077137
16.344234 90.308266 21.634169 -30.465251 -6.352884 1.057311 0.823358 3.346132 -0.801737 0.269471 1.620832 -0.126589 0.269471 1.620832 -0.126589 0.202425 1.215568 -0.095650 -8.970572 17.457769 2.467032 -17.372949 -2.901569 7.544510 4.544311 3.576898 7.766211 48.533029 -5.416325 87.181494 6.043870 25.696486 3.854096 -5.835225 13.429326 0.981558 -22.301779 7.755442 -12.336350 -28.377132 12.443306 -61.431284 -26.998563 -13.199851 -11.126954 3.668260 12.623618 7.822471 -3.700325 17.634404 -9.854158 0.832696 -7.563179 6.541175 -0.102386 -4.051837 1.036682 -1.474072 0.337060 -0.599873 -9.369487 9.523104 -1.718073 7.884591 0.937476 -0.334188 2.369376 -3.685272 -0.795606 0.156196 -0.084308 0.078413
16.355129 90.309298 21.633440 -30.399344 -6.412375 1.038934 0.829760 3.395555 -0.782215 0.280247 1.633294 -0.121769 0.280247 1.633294 -0.121769 0.210496 1.224915 -0.092070 -8.991354 17.454787 2.478331 -17.415229 -2.902149 7.572284 4.602803 3.776364 7.773296 48.797626 -5.705745 86.772890 5.663904 25.939132 4.077412 -5.618733 13.333733 1.044291 -22.337092 7.712698 -12.322504 -28.372358 12.460221 -61.404685 -27.018919 -13.278971 -11.101148 3.642110 12.579925 7.823914 -3.774282 17.701881 -9.843807 0.896826 -7.584218 6.521971 -0.214141 -4.048744 1.008167 -1.434663 0.332441 -0.577192 -9.426894 9.565256 -1.716311 7.851730 0.952768 -0.332456 2.388038 -3.691253 -0.797864 0.153068 -0.081275 0.079516
16.346110 90.311600 21.647072 -30.265539 -6.567523 0.999197 0.760562 3.538685 -0.743511 0.288189 1.649430 -0.114936 0.288189 1.649430 -0.114936 0.216437 1.237018 -0.086974 -9.002919 17.444598 2.481531 -17.438787 -2.918696 7.583387 4.670552 3.997585 7.807831 49.302079 -6.058557 86.483446 4.968779 26.261430 4.049585 -5.093996 13.185244 1.079066 -22.351709 7.666235 -12.312010 -28.373368 12.473398 -61.383358 -27.028482 -13.413401 -11.080542 3.635614 12.552331 7.824490 -4.013972 17.879292 -9.807856 1.093252 -7.628912 6.437501 -0.367899 -4.034904 0.943411 -1.288621 0.307029 -0.506987 -9.559889 9.713695 -1.714727 7.804301 0.967316 -0.326562 2.420589 -3.718721 -0.806765 0.145632 -0.066478 0.077826
16.339065 90.313174 21.653043 -30.169541 -6.665913 0.963581 0.718114 3.626771 -0.699449 0.288472 1.666244 -0.106278 0.288472 1.666244 -0.106278 0.216628 1.249633 -0.080490 -8.998306 17.425820 2.480009 -17.432102 -2.954206 7.581994 4.807329 4.105547 7.872072 50.454951 -6.304004 86.568375 3.949852 26.115425 3.397109 -4.164999 13.157203 1.277404 -22.346806 7.614794 -12.313194 -28.327569 12.469083 -61.361316 -27.030027 -13.539472 -11.047127 3.639587 12.542442 7.825053 -4.163318 17.993129 -9.754402 1.180339 -7.642029 6.366838 -0.429993 -4.056959 0.901857 -1.204612 0.307141 -0.467056 -9.677853 9.807866 -1.704317 7.804444 0.975080 -0.326017 2.422771 -3.732802 -0.811720 0.138054 -0.059858 0.074473
16.334725 90.314638 21.647196 -30.100181 -6.739608 0.928558 0.693854 3.694389 -0.649432 0.281892 1.691665 -0.092656 0.281892 1.691665 -0.092656 0.211660 1.268706 -0.070268 -8.976432 17.390882 2.482825 -17.397087 -3.021253 7.585494 5.021183 4.238547 7.964160 51.963020 -6.417595 86.302344 3.132235 25.427143 2.565980 -2.773558 13.322599 1.979737 -22.333963 7.516376 -12.330806 -28.233281 12.460009 -61.343244 -27.038588 -13.574192 -10.988735 3.643415 12.524098 7.821922 -4.236526 18.067530 -9.706531 1.149529 -7.627882 6.344859 -0.417757 -4.073002 0.861391 -1.156414 0.303618 -0.442977 -9.726451 9.870998 -1.669651 7.794939 0.993299 -0.341860 2.410810 -3.748489 -0.812029 0.135379 -0.052434 0.072737
